<svg width="44" height="44" viewBox="0 0 44 44" fill="none" xmlns="http://www.w3.org/2000/svg">
<rect width="44" height="44" rx="22" fill="#82B8A1"/>
<path d="M30.8333 29.5904C30.8333 29.1027 30.4405 28.7071 29.9579 28.7071H29.9308V22.5783C29.9308 21.635 29.1635 20.8657 28.2176 20.8657H23.2109V16.8935C23.2109 16.6415 23.0754 16.4057 22.8559 16.2811L21.6849 15.6066C21.4628 15.4791 21.1887 15.4764 20.9719 15.6038C20.7578 15.7284 20.6252 15.9641 20.6252 16.2215V20.8684H15.6101C14.6669 20.8684 13.897 21.635 13.897 22.5809V23.8218C13.8944 23.8405 13.8944 23.8596 13.8944 23.8788C13.8944 23.8977 13.897 23.9164 13.897 23.9356V28.7125H13.8755C13.3928 28.7125 13 29.108 13 29.5957V30.4248C13 30.9125 13.3928 31.3083 13.8755 31.3083H29.955C30.4375 31.3083 30.8306 30.9125 30.8306 30.4248V29.5904H30.8333ZM13.9244 30.3815V29.6282H29.9143V30.3815H13.9244ZM22.2893 17.8095L21.544 17.3786V16.5873L22.2893 17.0152V17.8095ZM21.5467 18.0045L22.292 18.4353V19.5189L21.5467 19.0881V18.0045ZM21.5467 19.7167L22.292 20.1476V20.8684H21.5467V19.7167ZM15.6101 21.7896H28.2176C28.654 21.7896 29.0091 22.1445 29.0091 22.5809V23.4857C28.6785 23.5807 28.3801 23.7731 28.1524 24.0468L27.6727 24.6293C27.5181 24.816 27.2904 24.919 27.0465 24.9137C26.8081 24.9084 26.5966 24.8056 26.4502 24.6236C26.4475 24.6183 26.4422 24.613 26.4392 24.6076L25.8972 23.8977C25.5745 23.4777 25.0922 23.231 24.569 23.2203C24.0459 23.2094 23.5524 23.437 23.2138 23.8462L22.5711 24.6293C22.4166 24.816 22.1889 24.919 21.9452 24.9137C21.701 24.9084 21.4762 24.7972 21.3297 24.6076L20.7984 23.9004C20.7984 23.9004 20.7984 23.9004 20.7984 23.8977C20.7984 23.8977 20.7984 23.8977 20.7984 23.8949C20.4814 23.4804 19.9825 23.2284 19.4624 23.2176C18.9445 23.2067 18.4539 23.4343 18.1149 23.8436L17.4345 24.6699C17.2854 24.8512 17.0605 24.9546 16.822 24.9546C16.822 24.9546 16.822 24.9546 16.8193 24.9546C16.5835 24.9546 16.361 24.8485 16.2094 24.6618L15.6914 24.0331C15.4637 23.7567 15.1629 23.5644 14.8267 23.4696V22.57C14.8188 22.1445 15.1739 21.7896 15.6101 21.7896ZM14.8188 24.4856C14.8757 24.5263 14.9271 24.5723 14.9732 24.6267L15.4909 25.255C15.819 25.6534 16.2988 25.881 16.8112 25.881H16.8139C17.3288 25.881 17.8086 25.656 18.1339 25.2634L18.8142 24.4341C18.9714 24.2444 19.1991 24.1362 19.435 24.1414C19.6762 24.1471 19.9094 24.2635 20.0558 24.4559L20.587 25.1631V25.1684C20.9042 25.5829 21.3895 25.8268 21.9153 25.8376H21.9505C22.4656 25.8376 22.9453 25.6129 23.2706 25.2198L23.9131 24.4368C24.0677 24.2501 24.3034 24.1389 24.5391 24.144C24.7806 24.1497 25.0027 24.2635 25.1545 24.4585L25.6775 25.1439C25.6832 25.1522 25.6885 25.1631 25.6966 25.1711C26.0138 25.5857 26.4936 25.8268 27.0167 25.8376H27.052C27.5671 25.8376 28.0469 25.6129 28.3721 25.2198L28.8519 24.6374C28.8953 24.5831 28.9468 24.5371 28.9983 24.4993V28.7125H14.8188V24.4856Z" fill="white"/>
<path d="M21.9939 15.3004C22.0698 15.3004 22.1484 15.2813 22.2189 15.2406C22.4412 15.1159 22.5196 14.8343 22.3952 14.6146C22.3002 14.4468 22.2785 14.2327 22.338 14.0404C22.3869 13.8803 22.4844 13.7586 22.612 13.6934C22.8858 13.5688 23.1352 13.4007 23.3491 13.1949C23.4549 13.409 23.4955 13.6527 23.4603 13.8967C23.4033 14.3032 23.146 14.6499 22.7719 14.8207C22.5413 14.9265 22.4384 15.2001 22.5442 15.4304C22.6229 15.5982 22.7881 15.6986 22.9644 15.6986C23.0294 15.6986 23.0943 15.6852 23.1569 15.6553C23.8183 15.3518 24.2736 14.7419 24.374 14.0213C24.4742 13.2978 24.2084 12.5852 23.6554 12.1139C23.6527 12.1111 23.6527 12.1111 23.65 12.1083C23.6447 12.103 23.6366 12.0977 23.6311 12.0949C23.6258 12.0896 23.6175 12.0839 23.6122 12.0812C23.6096 12.0812 23.6096 12.0786 23.6066 12.0759C23.604 12.0731 23.5985 12.0705 23.5959 12.0705C23.5879 12.0652 23.5796 12.0622 23.5715 12.0569C23.5661 12.0543 23.5607 12.0516 23.5523 12.0487C23.5444 12.046 23.5363 12.0409 23.528 12.038C23.5201 12.0352 23.5146 12.0325 23.5063 12.0299C23.4983 12.0271 23.4929 12.0244 23.4849 12.0218C23.4767 12.0191 23.4684 12.0165 23.4603 12.0165C23.4549 12.0137 23.4468 12.0137 23.4415 12.0107C23.4334 12.0081 23.425 12.0081 23.4169 12.0053C23.4116 12.0053 23.4033 12.0027 23.3979 12.0027C23.3898 12.0027 23.3817 12.0027 23.3709 12C23.3655 12 23.3573 12 23.3519 12C23.3438 12 23.3357 12 23.3276 12C23.322 12 23.3139 12 23.3086 12.0027C23.3004 12.0027 23.2924 12.0053 23.2843 12.0053C23.2759 12.0053 23.2706 12.0081 23.2625 12.0081C23.2542 12.0107 23.249 12.0107 23.2408 12.0137C23.2327 12.0165 23.2272 12.0165 23.2191 12.0191C23.2109 12.0218 23.2056 12.0244 23.2 12.0244C23.192 12.0271 23.1866 12.0299 23.1782 12.0325C23.1729 12.0352 23.1648 12.038 23.1595 12.0409C23.1513 12.0434 23.146 12.046 23.1379 12.0516C23.1326 12.0543 23.1242 12.0596 23.1188 12.0622C23.1134 12.0652 23.1053 12.0705 23.0996 12.0731C23.0943 12.0786 23.0862 12.0812 23.0809 12.0868C23.0753 12.0922 23.07 12.0949 23.0645 12.1003C23.0566 12.1056 23.0509 12.1111 23.0456 12.1165C23.0402 12.1221 23.0348 12.1247 23.0322 12.13C23.0265 12.1355 23.0184 12.1437 23.0131 12.149C23.0104 12.1517 23.0078 12.1545 23.005 12.1571C23.0023 12.1598 23.0023 12.1598 22.9995 12.1624C22.9941 12.1681 22.9888 12.1762 22.9832 12.1815C22.9779 12.1868 22.9723 12.1951 22.9697 12.2006C22.9697 12.2033 22.967 12.2033 22.9644 12.206C22.7827 12.4877 22.5225 12.7098 22.2161 12.8482C22.2133 12.8509 22.2107 12.8509 22.208 12.8535C22.2054 12.8562 22.2027 12.8562 22.1972 12.859C21.8395 13.0377 21.5764 13.3577 21.4516 13.7612C21.319 14.1948 21.3677 14.6661 21.5874 15.0564C21.674 15.2135 21.8313 15.3004 21.9939 15.3004Z" fill="white"/>
</svg>
