<svg width="44" height="44" viewBox="0 0 44 44" fill="none" xmlns="http://www.w3.org/2000/svg">
<rect width="44" height="44" rx="22" fill="#82B8A1"/>
<g clip-path="url(#clip0_30_27)">
<path d="M27.7782 12V13.2245H29.1594L26.4648 15.7795C25.5109 14.8034 24.1807 14.1963 22.7112 14.1963C20.7345 14.1963 19.0097 15.2945 18.1141 16.9125C18.0373 16.9092 17.9602 16.9071 17.8827 16.9071C14.9874 16.9071 12.632 19.2626 12.632 22.1579C12.632 24.846 14.6626 27.0684 17.2704 27.3726V28.9998H15.4373V30.2243H17.2705V32H18.495V30.2243H20.4081V28.9998H18.495V27.3726C20.2117 27.1723 21.6781 26.1408 22.4798 24.6923C22.5566 24.6956 22.6336 24.6977 22.7112 24.6977C25.6064 24.6977 27.9619 22.3422 27.9619 19.447C27.9619 18.4631 27.6896 17.5418 27.2169 16.7539L30.1434 13.9789V15.4998H31.3679V12H27.7782ZM17.8827 26.184C15.6627 26.184 13.8566 24.3779 13.8566 22.1578C13.8566 20.0242 15.5247 18.2733 17.6252 18.1401C17.5177 18.558 17.4605 18.9959 17.4605 19.447C17.4605 21.8089 19.0282 23.8113 21.1776 24.4689C20.4485 25.5054 19.2434 26.184 17.8827 26.184ZM21.7283 23.3516C19.9818 22.9117 18.6851 21.328 18.6851 19.447C18.6851 19.0315 18.7484 18.6305 18.8657 18.2532C20.6122 18.693 21.9089 20.2768 21.9089 22.1578C21.9089 22.5733 21.8456 22.9742 21.7283 23.3516ZM22.9688 23.4646C23.0762 23.0467 23.1334 22.6088 23.1334 22.1578C23.1334 19.7959 21.5658 17.7935 19.4164 17.1358C20.1455 16.0994 21.3506 15.4207 22.7113 15.4207C24.9314 15.4207 26.7375 17.2269 26.7375 19.447C26.7374 21.5805 25.0693 23.3314 22.9688 23.4646Z" fill="white"/>
</g>
<defs>
<clipPath id="clip0_30_27">
<rect width="20" height="20" fill="white" transform="translate(12 12)"/>
</clipPath>
</defs>
</svg>
