<svg width="48" height="48" viewBox="0 0 48 48" fill="none" xmlns="http://www.w3.org/2000/svg">
<rect x="2" y="2" width="44" height="44" rx="22" fill="#82B8A1"/>
<path d="M23.5291 33.6411C23.6617 33.7646 23.8309 33.8286 24 33.8286C24.1691 33.8286 24.3383 33.7646 24.4709 33.6411C24.7771 33.3486 32 26.4549 32 22.1714C32 17.76 28.4114 14.1714 24 14.1714C19.5886 14.1714 16 17.76 16 22.1714C16 26.4549 23.2229 33.3486 23.5291 33.6411ZM24 15.5429C27.6571 15.5429 30.6286 18.5143 30.6286 22.1714C30.6286 25.0194 26.2126 29.9886 24 32.1874C21.7874 29.9886 17.3714 25.024 17.3714 22.1714C17.3714 18.5143 20.3429 15.5429 24 15.5429V15.5429Z" fill="white"/>
<path d="M27.4286 22.1714C27.4286 20.2789 25.8926 18.7429 24 18.7429C22.1074 18.7429 20.5714 20.2789 20.5714 22.1714C20.5714 24.064 22.1074 25.6 24 25.6C25.8926 25.6 27.4286 24.064 27.4286 22.1714ZM21.9429 22.1714C21.9429 21.0377 22.8663 20.1143 24 20.1143C25.1337 20.1143 26.0571 21.0377 26.0571 22.1714C26.0571 23.3051 25.1337 24.2286 24 24.2286C22.8663 24.2286 21.9429 23.3051 21.9429 22.1714Z" fill="white"/>
</svg>
